<svg viewBox="0 0 400 150" xmlns="http://www.w3.org/2000/svg">
  <mask id="ticket-mask">
    <path d="M 10 0 L 0 15 L 10 30 L 0 45 L 10 60 L 0 75 L 10 90 L 0 105 L 10 120 L 0 135 L 10 150 H 390 L 400 135 L 390 120 L 400 105 L 390 90 L 400 75 L 390 60 L 400 45 L 390 30 L 400 15 L 390 0 Z" fill="white" />
  </mask>
  <g mask="url(#ticket-mask)">
    <rect width="130" height="150" fill="#FF4500" />
    <rect x="130" width="270" height="150" fill="#111111" />
    <path d="M 65 35 L 75 65 H 105 L 80 85 L 90 115 L 65 95 L 40 115 L 50 85 L 25 65 H 55 Z" fill="#111111" />
    <text x="110" y="105" font-family="Arial Black, system-ui, sans-serif" font-weight="900" font-size="65" fill="#FFFFFF" letter-spacing="-2">SKYLABS</text>
  </g>
</svg>
